<svg id="svg" version="1.1" xmlns="http://www.w3.org/2000/svg" xmlns:xlink="http://www.w3.org/1999/xlink" width="400" height="168.13353566009104" viewBox="0, 0, 400,168.13353566009104"><g id="svgg"><path id="path0" d="M60.025 16.810 C 60.025 16.902,59.806 16.930,59.522 16.873 C 59.245 16.817,58.810 16.849,58.555 16.944 C 58.300 17.038,57.165 17.250,56.032 17.414 C 54.899 17.578,53.972 17.765,53.972 17.830 C 53.972 17.895,53.651 17.998,53.258 18.059 C 52.278 18.212,50.394 18.679,50.189 18.820 C 50.097 18.884,49.416 19.118,48.676 19.341 C 47.936 19.563,47.293 19.793,47.247 19.852 C 47.201 19.911,46.652 20.127,46.028 20.333 C 45.404 20.540,44.893 20.770,44.893 20.845 C 44.893 20.919,44.685 21.031,44.430 21.093 C 43.741 21.260,39.237 23.549,39.009 23.849 C 38.962 23.910,38.565 24.135,38.125 24.350 C 37.686 24.564,37.327 24.805,37.327 24.885 C 37.327 24.965,37.187 25.074,37.017 25.128 C 36.704 25.228,35.142 26.309,34.588 26.811 C 34.423 26.960,34.080 27.212,33.825 27.371 C 33.571 27.529,33.215 27.792,33.033 27.954 C 32.851 28.117,32.287 28.608,31.778 29.046 C 30.512 30.135,26.793 33.865,25.974 34.866 C 25.606 35.315,25.190 35.808,25.050 35.961 C 24.910 36.113,24.609 36.501,24.380 36.822 C 24.151 37.143,23.842 37.528,23.693 37.677 C 23.544 37.827,23.316 38.187,23.187 38.478 C 23.058 38.770,22.902 39.008,22.839 39.008 C 22.777 39.008,22.554 39.292,22.343 39.639 C 22.132 39.985,21.918 40.307,21.867 40.353 C 21.704 40.500,21.168 41.435,21.071 41.740 C 21.020 41.902,20.924 42.034,20.858 42.034 C 20.792 42.034,20.556 42.432,20.333 42.917 C 20.110 43.403,19.877 43.838,19.814 43.885 C 19.649 44.009,17.991 47.506,17.991 47.730 C 17.991 47.834,17.931 47.919,17.857 47.919 C 17.784 47.919,17.580 48.354,17.403 48.886 C 17.227 49.418,16.990 50.004,16.877 50.189 C 16.764 50.374,16.547 50.979,16.395 51.534 C 16.243 52.089,16.074 52.657,16.019 52.795 C 15.964 52.934,15.932 53.104,15.946 53.174 C 15.961 53.243,15.913 53.300,15.839 53.300 C 15.766 53.300,15.561 53.981,15.385 54.813 C 15.208 55.645,15.002 56.326,14.927 56.326 C 14.851 56.326,14.823 56.511,14.864 56.737 C 14.905 56.963,14.874 57.171,14.796 57.199 C 14.678 57.242,14.280 59.379,13.863 62.211 C 13.685 63.415,13.458 66.506,13.532 66.709 C 13.591 66.871,14.935 66.919,19.473 66.919 L 25.338 66.919 25.539 64.719 C 25.650 63.509,25.808 62.392,25.891 62.239 C 25.974 62.085,26.168 61.202,26.322 60.277 C 26.476 59.353,26.702 58.369,26.825 58.092 C 26.947 57.814,27.177 57.095,27.334 56.494 C 27.492 55.893,27.712 55.250,27.824 55.065 C 27.936 54.880,28.126 54.426,28.246 54.056 C 28.366 53.686,28.718 52.839,29.028 52.173 C 29.338 51.506,29.592 50.888,29.592 50.797 C 29.592 50.707,29.690 50.534,29.810 50.411 C 30.017 50.199,30.642 49.158,31.292 47.941 C 31.458 47.630,31.700 47.251,31.829 47.101 C 31.959 46.950,32.208 46.569,32.384 46.254 C 32.559 45.939,32.854 45.512,33.039 45.305 C 33.224 45.098,33.640 44.572,33.964 44.137 C 34.288 43.701,34.628 43.256,34.720 43.148 C 34.813 43.040,35.275 42.498,35.748 41.945 C 36.839 40.666,37.653 39.853,38.922 38.774 C 39.478 38.302,39.971 37.877,40.017 37.831 C 40.448 37.400,41.881 36.318,42.021 36.318 C 42.119 36.318,42.294 36.166,42.410 35.982 C 42.525 35.797,42.679 35.645,42.751 35.645 C 42.823 35.645,43.197 35.437,43.581 35.183 C 44.530 34.556,45.648 33.892,46.658 33.357 C 47.121 33.111,47.537 32.856,47.583 32.790 C 47.629 32.723,48.120 32.500,48.674 32.295 C 49.228 32.089,49.757 31.857,49.851 31.780 C 49.944 31.702,50.513 31.471,51.114 31.266 C 51.715 31.061,52.282 30.838,52.375 30.771 C 52.467 30.704,53.073 30.510,53.720 30.341 C 54.367 30.172,54.935 29.978,54.982 29.911 C 55.081 29.769,58.497 29.088,59.109 29.088 C 59.335 29.088,59.521 29.019,59.521 28.936 C 59.521 28.852,60.315 28.730,61.286 28.664 L 63.052 28.543 63.052 22.594 L 63.052 16.646 61.538 16.646 C 60.668 16.646,60.025 16.715,60.025 16.810 M68.264 22.591 L 68.264 28.535 69.987 28.653 C 70.935 28.718,71.736 28.842,71.767 28.929 C 71.798 29.017,72.002 29.088,72.221 29.088 C 72.787 29.088,76.217 29.764,76.418 29.915 C 76.511 29.984,77.116 30.179,77.764 30.348 C 78.411 30.517,78.979 30.703,79.025 30.761 C 79.071 30.820,79.449 30.973,79.865 31.102 C 80.282 31.231,81.239 31.625,81.992 31.978 C 82.746 32.330,83.446 32.619,83.548 32.619 C 83.649 32.619,83.733 32.682,83.733 32.759 C 83.733 32.837,84.168 33.102,84.699 33.349 C 85.646 33.789,86.845 34.469,87.179 34.755 C 87.272 34.834,87.650 35.082,88.020 35.305 C 88.390 35.529,88.731 35.757,88.777 35.813 C 88.823 35.868,89.125 36.098,89.447 36.324 C 90.072 36.761,90.337 36.973,91.014 37.577 C 91.249 37.786,91.657 38.111,91.921 38.299 C 92.637 38.810,95.682 41.902,96.439 42.889 C 96.802 43.363,97.257 43.913,97.449 44.111 C 97.641 44.310,97.941 44.718,98.116 45.019 C 98.290 45.319,98.475 45.565,98.527 45.565 C 98.578 45.565,98.763 45.830,98.937 46.154 C 99.112 46.478,99.323 46.742,99.406 46.742 C 99.489 46.742,99.511 46.818,99.454 46.910 C 99.396 47.003,99.421 47.079,99.509 47.079 C 99.596 47.079,99.798 47.362,99.957 47.709 C 100.117 48.056,100.334 48.416,100.439 48.508 C 100.679 48.719,102.234 51.803,102.230 52.060 C 102.229 52.164,102.329 52.334,102.453 52.436 C 102.577 52.539,102.816 53.078,102.984 53.634 C 103.152 54.190,103.345 54.645,103.413 54.645 C 103.481 54.645,103.704 55.269,103.910 56.032 C 104.115 56.795,104.338 57.457,104.405 57.503 C 104.473 57.549,104.702 58.495,104.915 59.605 C 105.128 60.715,105.358 61.698,105.426 61.791 C 105.584 62.004,105.927 64.936,105.927 66.065 L 105.927 66.919 111.896 66.919 L 117.865 66.919 117.865 66.023 C 117.865 64.740,117.541 61.515,117.372 61.118 C 117.293 60.933,117.070 59.779,116.875 58.553 C 116.680 57.327,116.450 56.192,116.364 56.031 C 116.277 55.870,116.045 55.058,115.847 54.228 C 115.650 53.398,115.427 52.642,115.352 52.547 C 115.277 52.452,115.085 51.921,114.926 51.366 C 114.767 50.811,114.586 50.319,114.524 50.273 C 114.463 50.227,114.234 49.660,114.017 49.012 C 113.799 48.365,113.569 47.797,113.505 47.751 C 113.441 47.705,113.208 47.213,112.989 46.658 C 112.769 46.103,112.535 45.612,112.469 45.565 C 112.403 45.519,112.152 45.065,111.912 44.557 C 111.440 43.556,110.957 42.674,110.298 41.608 C 110.067 41.234,109.802 40.806,109.710 40.655 C 109.117 39.691,107.539 37.484,107.265 37.236 C 107.084 37.072,106.936 36.850,106.936 36.742 C 106.936 36.635,106.765 36.381,106.557 36.178 C 106.349 35.975,105.952 35.528,105.675 35.186 C 105.061 34.429,100.023 29.391,99.104 28.616 C 98.741 28.310,98.315 27.939,98.156 27.793 C 97.997 27.647,97.722 27.443,97.544 27.341 C 97.367 27.238,96.647 26.719,95.943 26.187 C 95.240 25.656,94.600 25.221,94.521 25.221 C 94.442 25.221,94.241 25.069,94.073 24.884 C 93.906 24.699,93.703 24.548,93.623 24.548 C 93.543 24.548,93.158 24.340,92.767 24.086 C 91.790 23.452,90.879 22.946,89.786 22.430 C 89.277 22.190,88.823 21.939,88.777 21.873 C 88.731 21.807,88.239 21.572,87.684 21.351 C 87.129 21.130,86.448 20.823,86.171 20.668 C 85.893 20.513,85.307 20.285,84.868 20.161 C 84.428 20.037,84.069 19.886,84.069 19.827 C 84.069 19.767,83.445 19.543,82.682 19.328 C 81.919 19.114,81.257 18.886,81.211 18.823 C 81.114 18.691,78.144 17.991,77.681 17.991 C 77.511 17.991,77.346 17.919,77.315 17.831 C 77.253 17.654,73.121 16.946,72.005 16.922 C 71.612 16.914,71.290 16.848,71.290 16.776 C 71.290 16.704,70.609 16.646,69.777 16.646 L 68.264 16.646 68.264 22.591 M62.715 37.088 C 60.534 37.335,59.077 37.547,58.932 37.637 C 58.840 37.695,58.651 37.749,58.512 37.759 C 58.373 37.768,58.146 37.818,58.008 37.870 C 57.869 37.921,57.226 38.096,56.578 38.257 C 55.931 38.419,55.307 38.626,55.191 38.716 C 55.076 38.807,54.980 38.815,54.979 38.734 C 54.977 38.654,54.920 38.666,54.852 38.762 C 54.784 38.857,54.180 39.116,53.510 39.336 C 52.839 39.557,52.291 39.790,52.291 39.854 C 52.291 39.919,51.931 40.105,51.492 40.269 C 51.053 40.433,50.580 40.661,50.441 40.776 C 50.303 40.891,49.924 41.118,49.601 41.281 C 49.277 41.444,48.974 41.632,48.928 41.699 C 48.882 41.766,48.522 41.984,48.129 42.183 C 47.736 42.383,47.415 42.607,47.415 42.682 C 47.415 42.757,47.207 42.922,46.953 43.049 C 46.698 43.176,46.339 43.412,46.154 43.573 C 45.969 43.734,45.515 44.126,45.145 44.444 C 43.425 45.921,42.744 46.592,41.511 48.025 C 40.782 48.873,40.185 49.623,40.185 49.692 C 40.185 49.761,40.028 49.977,39.836 50.171 C 39.366 50.648,38.168 52.494,38.168 52.741 C 38.167 52.850,38.059 53.048,37.927 53.180 C 37.668 53.438,36.272 56.303,36.065 56.999 C 35.997 57.230,35.882 57.495,35.811 57.587 C 35.740 57.680,35.520 58.361,35.322 59.100 C 35.124 59.840,34.889 60.576,34.801 60.735 C 34.560 61.168,34.135 63.769,34.017 65.538 C 33.959 66.396,33.848 67.139,33.770 67.187 C 33.584 67.302,33.584 70.907,33.770 71.022 C 33.848 71.071,33.961 71.847,34.020 72.747 C 34.134 74.488,34.605 77.371,34.799 77.512 C 34.862 77.558,35.048 78.163,35.212 78.857 C 35.375 79.550,35.601 80.269,35.713 80.454 C 35.826 80.639,36.094 81.282,36.309 81.883 C 36.523 82.484,36.752 83.014,36.817 83.060 C 36.882 83.106,37.139 83.560,37.388 84.069 C 38.110 85.541,38.347 85.953,38.948 86.782 C 39.258 87.210,39.512 87.620,39.512 87.692 C 39.512 87.765,39.623 87.944,39.757 88.090 C 39.892 88.237,40.508 88.962,41.127 89.702 C 42.588 91.449,45.236 94.018,45.776 94.210 C 45.937 94.268,46.070 94.388,46.070 94.477 C 46.070 94.567,46.372 94.810,46.742 95.018 C 47.112 95.226,47.415 95.450,47.415 95.516 C 47.415 95.582,47.736 95.804,48.129 96.008 C 48.522 96.213,48.882 96.438,48.928 96.509 C 49.053 96.702,52.322 98.361,52.577 98.361 C 52.697 98.361,52.795 98.423,52.795 98.498 C 52.795 98.574,53.344 98.814,54.014 99.031 C 54.685 99.249,55.271 99.478,55.317 99.541 C 55.799 100.190,56.303 99.861,57.764 97.940 C 58.078 97.528,60.393 94.585,60.910 93.941 C 61.117 93.683,61.456 93.296,61.665 93.081 C 61.873 92.866,62.043 92.636,62.043 92.571 C 62.043 92.506,62.346 92.093,62.715 91.654 C 63.085 91.216,63.385 90.748,63.382 90.615 C 63.376 90.389,57.960 87.600,57.525 87.600 C 57.421 87.600,57.335 87.529,57.335 87.443 C 57.335 87.357,57.165 87.233,56.957 87.167 C 56.413 86.996,54.703 85.836,53.075 84.534 C 51.975 83.654,49.691 81.252,49.201 80.460 C 49.028 80.179,48.834 79.912,48.771 79.865 C 48.568 79.716,47.480 77.620,47.158 76.755 C 46.985 76.293,46.791 75.876,46.727 75.830 C 46.557 75.709,45.902 72.578,45.902 71.892 C 45.902 71.572,45.826 71.264,45.734 71.206 C 45.528 71.079,45.505 67.144,45.709 67.018 C 45.788 66.969,45.900 66.475,45.958 65.920 C 46.094 64.623,46.563 62.726,46.853 62.300 C 46.977 62.117,47.079 61.852,47.079 61.711 C 47.079 61.445,48.545 58.493,48.750 58.344 C 48.814 58.298,49.146 57.834,49.489 57.313 C 50.119 56.355,52.290 54.040,53.216 53.339 C 53.493 53.129,53.871 52.841,54.056 52.698 C 54.777 52.141,56.251 51.277,56.780 51.103 C 57.085 51.002,57.335 50.860,57.335 50.788 C 57.335 50.715,57.770 50.522,58.302 50.358 C 58.834 50.194,59.571 49.928,59.941 49.765 C 62.152 48.795,70.307 48.791,71.541 49.760 C 71.634 49.833,72.013 49.985,72.383 50.098 C 73.277 50.369,75.830 51.626,76.240 51.997 C 76.419 52.158,76.636 52.291,76.721 52.291 C 77.388 52.291,82.219 57.137,82.219 57.806 C 82.219 57.908,82.320 58.051,82.444 58.125 C 82.567 58.199,82.851 58.638,83.074 59.100 C 83.297 59.563,83.536 59.983,83.604 60.034 C 83.672 60.084,83.880 60.568,84.066 61.108 C 84.251 61.648,84.470 62.174,84.552 62.277 C 84.747 62.522,85.236 64.512,85.361 65.574 C 85.416 66.036,85.526 66.414,85.606 66.414 C 85.796 66.414,85.794 71.748,85.604 71.865 C 85.524 71.915,85.407 72.354,85.345 72.842 C 85.217 73.842,84.737 75.702,84.575 75.830 C 84.516 75.876,84.293 76.387,84.080 76.965 C 83.866 77.543,83.640 78.016,83.576 78.016 C 83.513 78.016,83.276 78.431,83.050 78.939 C 82.824 79.447,82.585 79.863,82.517 79.864 C 82.450 79.865,82.240 80.168,82.051 80.538 C 81.863 80.908,81.634 81.211,81.543 81.211 C 81.453 81.211,81.379 81.289,81.379 81.386 C 81.379 81.540,80.771 82.500,80.532 82.724 C 80.450 82.800,80.262 83.048,79.400 84.210 C 79.240 84.426,78.939 84.789,78.731 85.016 C 78.522 85.243,78.352 85.469,78.352 85.517 C 78.352 85.611,77.042 87.293,76.534 87.852 C 76.365 88.037,76.095 88.402,75.933 88.664 C 75.649 89.121,75.454 89.364,74.446 90.520 C 74.193 90.809,73.985 91.092,73.983 91.148 C 73.982 91.203,73.773 91.481,73.518 91.765 C 73.264 92.050,72.891 92.496,72.690 92.757 C 72.302 93.260,71.538 94.217,70.704 95.246 C 70.427 95.586,70.162 95.929,70.113 96.007 C 70.065 96.085,69.800 96.427,69.523 96.768 C 68.350 98.214,66.352 100.721,65.574 101.724 C 65.132 102.293,63.418 104.398,62.870 105.044 C 62.694 105.252,62.583 105.422,62.625 105.422 C 62.666 105.422,62.533 105.599,62.329 105.814 C 62.126 106.030,61.770 106.455,61.538 106.760 C 61.307 107.064,60.942 107.511,60.726 107.752 C 60.510 107.994,60.210 108.401,60.059 108.656 C 59.908 108.912,59.731 109.121,59.666 109.121 C 59.601 109.121,59.380 109.393,59.175 109.726 C 58.969 110.058,58.642 110.497,58.446 110.700 C 58.251 110.904,57.865 111.360,57.587 111.713 C 57.310 112.067,56.913 112.547,56.704 112.781 C 56.496 113.015,56.325 113.252,56.325 113.307 C 56.324 113.363,55.985 113.787,55.573 114.250 C 55.160 114.712,54.820 115.144,54.817 115.209 C 54.815 115.274,54.643 115.510,54.435 115.734 C 54.227 115.958,53.867 116.378,53.636 116.668 C 53.405 116.959,53.076 117.354,52.905 117.547 L 52.594 117.898 52.277 117.377 C 52.102 117.090,51.888 116.856,51.800 116.856 C 51.713 116.856,51.597 116.723,51.544 116.562 C 51.491 116.400,51.146 115.927,50.779 115.511 C 50.411 115.095,50.109 114.708,50.108 114.653 C 50.106 114.597,49.935 114.360,49.727 114.126 C 49.519 113.892,49.146 113.446,48.898 113.135 C 48.492 112.623,46.630 110.267,45.686 109.069 C 45.481 108.809,45.144 108.392,44.937 108.144 C 44.511 107.633,42.221 104.752,41.652 104.011 C 41.446 103.743,41.163 103.402,41.023 103.252 C 40.883 103.102,40.582 102.717,40.353 102.396 C 40.124 102.075,39.823 101.685,39.683 101.529 C 39.543 101.374,39.164 100.892,38.840 100.458 C 37.920 99.226,37.201 98.307,36.872 97.943 C 36.706 97.760,36.494 97.487,36.402 97.337 C 36.177 96.972,35.241 95.695,34.794 95.145 C 34.597 94.903,34.349 94.552,34.242 94.366 C 34.135 94.181,33.707 93.548,33.291 92.961 C 32.367 91.657,31.932 90.965,31.344 89.870 C 31.096 89.407,30.836 88.991,30.766 88.945 C 30.574 88.818,28.699 85.115,28.339 84.153 C 28.166 83.691,27.934 83.161,27.824 82.976 C 27.714 82.791,27.487 82.110,27.320 81.463 C 27.153 80.815,26.953 80.243,26.875 80.192 C 26.797 80.140,26.575 79.270,26.382 78.258 C 26.189 77.246,25.964 76.267,25.883 76.082 C 25.762 75.808,25.389 72.952,25.389 72.306 C 25.389 72.099,13.686 72.055,13.559 72.261 C 13.457 72.426,13.832 76.923,13.948 76.923 C 14.000 76.923,14.797 81.247,14.808 81.589 C 14.813 81.751,14.873 81.883,14.941 81.883 C 15.009 81.883,15.160 82.343,15.276 82.906 C 15.393 83.469,15.571 84.131,15.673 84.377 C 15.776 84.624,15.843 84.894,15.823 84.978 C 15.803 85.062,15.850 85.176,15.927 85.230 C 16.004 85.285,16.204 85.784,16.372 86.339 C 16.540 86.894,16.772 87.499,16.888 87.684 C 17.004 87.869,17.235 88.436,17.401 88.945 C 17.568 89.454,17.759 89.908,17.826 89.954 C 17.894 90.000,18.124 90.454,18.339 90.963 C 18.554 91.471,18.781 91.925,18.844 91.971 C 18.906 92.018,19.133 92.472,19.348 92.980 C 19.563 93.489,19.789 93.943,19.851 93.989 C 19.913 94.035,20.135 94.414,20.345 94.830 C 20.554 95.246,20.781 95.624,20.849 95.670 C 20.917 95.717,21.144 96.095,21.354 96.511 C 21.563 96.927,21.790 97.306,21.858 97.352 C 21.926 97.398,22.137 97.744,22.327 98.120 C 22.518 98.496,22.793 98.902,22.939 99.023 C 23.084 99.144,23.203 99.336,23.203 99.450 C 23.203 99.563,23.373 99.846,23.581 100.078 C 24.048 100.599,24.331 101.021,24.544 101.513 C 24.634 101.721,24.768 101.892,24.842 101.892 C 24.916 101.892,25.119 102.156,25.293 102.480 C 25.467 102.804,25.676 103.069,25.757 103.069 C 25.838 103.069,25.958 103.209,26.025 103.380 C 26.141 103.681,26.766 104.561,27.827 105.917 C 28.104 106.272,28.520 106.808,28.752 107.109 C 28.983 107.410,29.338 107.853,29.541 108.094 C 30.432 109.155,31.442 110.471,31.442 110.573 C 31.442 110.634,31.592 110.843,31.776 111.037 C 32.506 111.810,32.955 112.336,32.955 112.419 C 32.955 112.520,34.362 114.327,35.558 115.763 C 35.789 116.040,36.543 116.986,37.233 117.865 C 38.694 119.725,39.121 120.250,39.639 120.823 C 39.847 121.054,40.017 121.309,40.017 121.391 C 40.017 121.473,40.206 121.688,40.437 121.870 C 40.668 122.052,40.858 122.257,40.858 122.326 C 40.858 122.396,41.198 122.851,41.614 123.338 C 42.030 123.825,42.371 124.278,42.371 124.345 C 42.371 124.413,42.541 124.644,42.749 124.859 C 42.957 125.074,43.295 125.461,43.500 125.719 C 43.705 125.977,44.443 126.885,45.139 127.737 C 45.836 128.589,46.406 129.337,46.406 129.399 C 46.406 129.461,46.576 129.688,46.784 129.903 C 46.992 130.118,47.330 130.505,47.535 130.763 C 47.740 131.021,48.478 131.929,49.175 132.781 C 49.871 133.633,50.441 134.382,50.441 134.445 C 50.441 134.508,50.592 134.718,50.776 134.913 C 51.561 135.743,51.958 136.220,52.125 136.532 C 52.388 137.024,52.889 136.936,53.328 136.320 C 53.541 136.021,53.830 135.656,53.970 135.509 C 54.110 135.363,54.451 134.957,54.729 134.607 C 55.006 134.257,55.460 133.684,55.738 133.334 C 56.015 132.984,56.507 132.348,56.831 131.922 C 57.154 131.496,57.608 130.926,57.839 130.656 C 58.071 130.385,58.428 129.951,58.633 129.689 C 59.158 129.019,61.306 126.299,61.845 125.621 C 62.092 125.310,62.465 124.863,62.673 124.630 C 62.881 124.396,63.053 124.159,63.054 124.103 C 63.056 124.047,63.357 123.661,63.724 123.245 C 64.091 122.829,64.393 122.443,64.394 122.387 C 64.396 122.332,64.626 122.029,64.905 121.715 C 65.185 121.400,65.563 120.954,65.746 120.723 C 65.928 120.492,66.293 120.038,66.557 119.714 C 66.821 119.391,67.546 118.483,68.168 117.697 C 69.465 116.058,69.992 115.396,70.702 114.509 C 70.979 114.163,71.433 113.589,71.711 113.234 C 71.988 112.879,72.442 112.311,72.720 111.973 C 72.997 111.634,73.451 111.073,73.728 110.726 C 74.006 110.379,74.460 109.811,74.737 109.465 C 75.015 109.118,75.469 108.545,75.746 108.190 C 76.690 106.982,77.372 106.128,78.495 104.750 C 78.758 104.426,79.483 103.518,80.106 102.732 C 81.404 101.093,81.930 100.431,82.640 99.545 C 83.845 98.039,84.184 97.613,84.695 96.956 C 84.993 96.572,85.392 96.070,85.582 95.839 C 86.087 95.223,86.929 94.137,87.600 93.233 C 87.923 92.797,88.359 92.270,88.567 92.061 C 88.775 91.852,88.946 91.614,88.948 91.532 C 88.949 91.450,89.184 91.118,89.469 90.794 C 89.755 90.471,90.104 89.979,90.246 89.702 C 90.388 89.424,90.607 89.137,90.733 89.063 C 90.859 88.989,90.963 88.837,90.963 88.726 C 90.963 88.615,91.133 88.323,91.341 88.077 C 92.124 87.151,94.998 82.136,94.998 81.697 C 94.998 81.595,95.174 81.160,95.389 80.731 C 95.604 80.301,95.921 79.420,96.093 78.773 C 96.266 78.125,96.466 77.554,96.540 77.503 C 96.709 77.387,97.352 73.659,97.352 72.797 C 97.352 72.442,97.427 72.104,97.520 72.047 C 97.746 71.908,97.746 66.302,97.520 66.162 C 97.427 66.105,97.352 65.730,97.352 65.328 C 97.352 64.405,96.725 60.705,96.527 60.461 C 96.446 60.360,96.259 59.803,96.111 59.223 C 95.964 58.643,95.691 57.834,95.505 57.425 C 95.319 57.016,95.166 56.632,95.166 56.571 C 95.166 56.358,93.586 53.212,93.369 52.993 C 93.248 52.871,93.148 52.692,93.148 52.596 C 93.148 52.499,92.884 52.059,92.560 51.618 C 92.236 51.177,91.971 50.771,91.971 50.715 C 91.971 50.607,91.160 49.521,90.455 48.686 C 88.446 46.306,86.928 44.888,84.153 42.801 C 83.303 42.161,81.924 41.306,81.505 41.157 C 81.251 41.067,81.042 40.934,81.042 40.863 C 81.042 40.762,79.246 39.864,78.857 39.771 C 78.810 39.760,78.530 39.621,78.234 39.463 C 77.939 39.305,77.597 39.176,77.475 39.176 C 77.354 39.176,76.991 39.035,76.668 38.863 C 76.346 38.691,75.477 38.410,74.737 38.240 C 73.997 38.069,73.354 37.875,73.306 37.809 C 73.001 37.383,64.945 36.834,62.715 37.088 M172.257 43.403 C 171.517 43.484,170.761 43.616,170.576 43.696 C 170.391 43.776,169.445 44.011,168.474 44.217 C 167.503 44.424,166.671 44.642,166.625 44.703 C 166.578 44.764,165.978 44.992,165.290 45.210 C 164.601 45.427,163.934 45.710,163.806 45.838 C 163.679 45.965,163.459 46.070,163.318 46.070 C 163.036 46.070,162.136 46.538,161.782 46.868 C 161.658 46.984,161.461 47.079,161.344 47.079 C 161.227 47.079,160.708 47.381,160.192 47.751 C 159.675 48.121,159.199 48.424,159.133 48.424 C 159.067 48.424,158.838 48.594,158.624 48.802 C 158.410 49.010,157.996 49.369,157.704 49.601 C 157.411 49.832,156.670 50.519,156.056 51.127 C 154.996 52.178,154.508 52.736,153.647 53.888 C 153.439 54.166,153.218 54.430,153.156 54.477 C 153.093 54.523,152.868 54.901,152.655 55.317 C 152.441 55.734,152.216 56.112,152.153 56.158 C 151.937 56.317,150.484 59.269,150.484 59.549 C 150.484 59.703,150.407 59.854,150.314 59.885 C 150.221 59.917,149.991 60.509,149.804 61.203 C 149.616 61.896,149.384 62.603,149.289 62.774 C 149.193 62.945,149.155 63.125,149.205 63.174 C 149.254 63.224,149.220 63.403,149.129 63.574 C 148.279 65.163,148.295 76.412,149.150 77.441 C 149.234 77.543,149.256 77.675,149.197 77.733 C 149.138 77.792,149.165 77.936,149.256 78.054 C 149.348 78.172,149.520 78.646,149.640 79.109 C 149.851 79.927,151.887 84.226,152.146 84.401 C 152.217 84.450,152.394 84.731,152.538 85.026 C 153.027 86.021,156.152 89.416,157.694 90.626 C 157.989 90.858,158.406 91.198,158.622 91.383 C 159.167 91.851,159.596 92.132,159.941 92.248 C 160.103 92.302,160.235 92.408,160.235 92.482 C 160.235 92.556,160.519 92.789,160.866 93.000 C 161.213 93.210,161.534 93.433,161.580 93.495 C 161.627 93.557,162.005 93.779,162.421 93.989 C 162.837 94.199,163.216 94.426,163.262 94.494 C 163.335 94.601,165.069 95.457,167.633 96.651 C 168.050 96.845,168.806 97.097,169.315 97.211 C 169.823 97.325,170.287 97.487,170.344 97.571 C 170.705 98.094,172.199 97.773,172.566 97.094 C 172.768 96.721,173.030 96.305,173.148 96.169 C 173.267 96.034,173.735 95.317,174.189 94.578 C 174.643 93.838,175.132 93.113,175.275 92.966 C 175.419 92.820,175.536 92.649,175.536 92.586 C 175.536 92.523,175.839 92.029,176.208 91.487 C 176.578 90.945,176.881 90.416,176.881 90.312 C 176.881 90.207,176.959 90.122,177.053 90.122 C 177.148 90.122,177.293 89.952,177.374 89.744 C 177.456 89.536,177.795 88.987,178.127 88.525 C 178.852 87.516,178.874 87.302,178.268 87.168 C 177.471 86.991,176.636 86.721,176.459 86.582 C 176.365 86.508,175.854 86.286,175.324 86.087 C 174.793 85.889,174.358 85.675,174.357 85.612 C 174.356 85.549,174.034 85.351,173.642 85.171 C 173.250 84.991,172.797 84.733,172.634 84.597 C 172.264 84.288,171.674 83.939,171.290 83.800 C 171.129 83.741,170.996 83.633,170.996 83.559 C 170.996 83.484,170.724 83.256,170.392 83.050 C 170.059 82.845,169.609 82.517,169.391 82.322 C 169.173 82.127,168.776 81.778,168.509 81.547 C 166.971 80.216,165.950 79.139,165.522 78.394 C 165.349 78.094,165.148 77.848,165.075 77.848 C 165.003 77.848,164.943 77.771,164.943 77.677 C 164.943 77.584,164.716 77.035,164.439 76.458 C 164.161 75.882,163.811 74.767,163.662 73.981 C 163.512 73.195,163.323 72.420,163.241 72.260 C 163.050 71.881,163.048 67.976,163.240 67.857 C 163.320 67.808,163.437 67.312,163.500 66.756 C 163.630 65.611,163.802 65.025,164.375 63.777 C 164.595 63.297,164.775 62.851,164.775 62.785 C 164.775 62.720,165.040 62.267,165.364 61.780 C 165.687 61.292,165.952 60.853,165.952 60.804 C 165.952 60.611,168.104 58.562,168.896 58.001 C 170.571 56.815,172.460 56.078,174.322 55.884 C 174.902 55.824,175.417 55.709,175.467 55.630 C 175.583 55.442,178.179 55.441,178.296 55.630 C 178.345 55.709,178.784 55.822,179.272 55.880 C 180.375 56.010,182.136 56.463,182.256 56.646 C 182.305 56.721,182.709 56.942,183.153 57.137 C 183.597 57.332,184.164 57.649,184.414 57.841 C 185.890 58.976,186.495 59.518,187.042 60.193 C 187.380 60.609,187.786 61.101,187.946 61.286 C 188.106 61.471,188.387 61.924,188.570 62.293 C 188.753 62.661,188.985 63.051,189.085 63.159 C 189.185 63.267,189.405 63.798,189.573 64.339 C 189.742 64.879,189.931 65.359,189.995 65.406 C 190.738 65.948,190.745 74.118,190.004 75.451 C 189.913 75.613,189.677 76.427,189.477 77.259 C 189.278 78.092,189.061 78.810,188.996 78.857 C 188.930 78.903,188.698 79.489,188.481 80.160 C 188.263 80.830,188.023 81.379,187.947 81.379 C 187.872 81.379,187.810 81.464,187.810 81.569 C 187.810 81.828,185.379 86.669,185.119 86.927 C 185.018 87.028,184.026 88.633,183.581 89.417 C 183.407 89.723,183.186 90.064,183.091 90.174 C 182.777 90.535,181.787 92.044,181.497 92.602 C 181.342 92.902,181.153 93.148,181.077 93.148 C 181.002 93.148,180.770 93.489,180.562 93.905 C 180.354 94.321,180.138 94.662,180.082 94.662 C 180.026 94.662,179.838 94.908,179.665 95.208 C 179.491 95.509,179.245 95.868,179.116 96.007 C 178.900 96.241,178.258 97.190,177.478 98.429 C 177.298 98.715,177.052 99.010,176.932 99.084 C 176.811 99.158,176.713 99.289,176.713 99.376 C 176.713 99.521,175.462 101.428,175.038 101.931 C 174.642 102.400,174.040 103.405,174.154 103.407 C 174.220 103.409,174.189 103.466,174.085 103.533 C 173.839 103.693,172.678 105.219,172.677 105.382 C 172.677 105.450,172.503 105.709,172.290 105.956 C 172.077 106.204,171.758 106.677,171.580 107.007 C 171.402 107.338,171.199 107.608,171.130 107.608 C 171.060 107.608,170.848 107.892,170.659 108.239 C 170.469 108.586,169.978 109.323,169.567 109.878 C 169.156 110.433,168.690 111.133,168.532 111.433 C 168.373 111.734,168.187 111.980,168.119 111.980 C 168.050 111.980,167.823 112.320,167.615 112.736 C 167.408 113.153,167.189 113.493,167.130 113.493 C 167.071 113.493,166.853 113.796,166.645 114.166 C 166.437 114.536,166.211 114.838,166.143 114.838 C 166.074 114.838,165.833 115.215,165.607 115.676 C 165.381 116.137,165.145 116.515,165.083 116.517 C 165.021 116.518,164.798 116.803,164.588 117.150 C 164.377 117.497,164.106 117.841,163.986 117.915 C 163.865 117.989,163.766 118.125,163.766 118.217 C 163.766 118.409,162.487 120.292,162.043 120.753 C 161.881 120.922,161.749 121.125,161.749 121.204 C 161.749 121.284,161.522 121.635,161.244 121.984 C 160.322 123.145,159.806 123.077,169.539 123.077 L 178.337 123.077 178.568 122.615 C 178.695 122.360,178.924 122.001,179.077 121.816 C 179.230 121.631,179.498 121.217,179.673 120.896 C 179.848 120.575,180.124 120.164,180.286 119.982 C 180.448 119.800,180.580 119.570,180.580 119.472 C 180.580 119.374,180.751 119.090,180.959 118.841 C 181.167 118.592,181.602 117.958,181.925 117.432 C 182.746 116.097,183.910 114.283,184.074 114.082 C 184.150 113.989,184.397 113.576,184.624 113.164 C 184.850 112.752,185.168 112.279,185.330 112.113 C 185.492 111.947,185.625 111.717,185.626 111.602 C 185.628 111.486,185.783 111.202,185.972 110.971 C 186.161 110.740,186.651 110.021,187.061 109.374 C 187.471 108.726,187.884 108.083,187.979 107.945 C 188.074 107.806,188.466 107.201,188.849 106.599 C 189.233 105.998,189.836 105.053,190.191 104.498 C 190.545 103.943,190.910 103.399,191.001 103.289 C 191.092 103.179,191.327 102.800,191.523 102.448 C 191.719 102.096,191.976 101.694,192.094 101.555 C 192.212 101.417,192.442 101.038,192.604 100.715 C 192.767 100.391,193.003 100.066,193.129 99.992 C 193.255 99.918,193.359 99.776,193.359 99.676 C 193.359 99.576,193.661 99.051,194.031 98.509 C 194.401 97.967,194.704 97.451,194.704 97.362 C 194.704 97.273,194.807 97.140,194.934 97.066 C 195.061 96.992,195.332 96.599,195.538 96.193 C 195.743 95.787,196.056 95.300,196.232 95.111 C 196.409 94.921,196.553 94.681,196.553 94.578 C 196.553 94.474,196.698 94.234,196.874 94.044 C 197.050 93.855,197.363 93.368,197.569 92.962 C 197.775 92.556,197.992 92.186,198.052 92.140 C 198.112 92.093,198.492 91.488,198.897 90.794 C 199.302 90.101,199.752 89.344,199.897 89.113 C 200.042 88.882,200.335 88.352,200.547 87.936 C 200.759 87.520,201.006 87.066,201.096 86.927 C 201.392 86.469,202.579 83.814,202.696 83.349 C 202.759 83.098,202.868 82.892,202.937 82.892 C 203.007 82.892,203.240 82.268,203.454 81.505 C 203.669 80.742,203.898 80.080,203.964 80.034 C 204.106 79.934,204.792 76.695,204.792 76.126 C 204.792 75.908,204.887 75.635,205.002 75.519 C 205.285 75.236,205.304 65.990,205.023 65.389 C 204.919 65.167,204.665 64.191,204.459 63.220 C 204.252 62.249,204.022 61.416,203.947 61.369 C 203.871 61.321,203.756 61.057,203.691 60.780 C 203.561 60.232,202.148 57.141,201.963 57.001 C 201.900 56.954,201.674 56.555,201.459 56.116 C 201.245 55.677,201.008 55.317,200.932 55.317 C 200.857 55.317,200.667 55.048,200.511 54.719 C 200.355 54.389,200.119 54.079,199.987 54.028 C 199.856 53.978,199.748 53.851,199.748 53.746 C 199.748 53.641,199.569 53.366,199.351 53.133 C 198.200 51.907,196.387 50.128,195.837 49.685 C 195.492 49.407,194.966 48.972,194.668 48.718 C 194.369 48.464,194.042 48.256,193.941 48.256 C 193.841 48.256,193.603 48.111,193.414 47.935 C 193.225 47.758,192.737 47.446,192.331 47.240 C 191.925 47.034,191.555 46.815,191.509 46.753 C 191.463 46.691,191.009 46.465,190.500 46.250 C 189.992 46.035,189.538 45.809,189.491 45.747 C 189.445 45.685,188.840 45.449,188.146 45.222 C 187.453 44.995,186.847 44.762,186.801 44.705 C 186.697 44.577,184.795 44.103,183.775 43.951 C 183.359 43.889,182.940 43.777,182.845 43.703 C 182.296 43.275,175.244 43.075,172.257 43.403 M232.451 43.403 C 231.711 43.484,230.954 43.618,230.769 43.700 C 230.584 43.783,229.752 43.981,228.920 44.141 C 228.087 44.301,227.179 44.534,226.902 44.659 C 226.625 44.783,225.909 45.040,225.312 45.229 C 224.715 45.419,224.186 45.632,224.135 45.704 C 224.085 45.776,223.683 45.970,223.242 46.136 C 222.801 46.301,222.347 46.524,222.233 46.632 C 222.119 46.739,221.633 47.009,221.152 47.230 C 220.671 47.451,220.238 47.735,220.190 47.860 C 220.142 47.985,220.013 48.087,219.903 48.087 C 219.699 48.087,218.110 49.238,217.467 49.850 C 217.271 50.037,216.742 50.538,216.290 50.965 C 215.351 51.853,214.363 53.010,214.140 53.482 C 214.056 53.659,213.930 53.804,213.859 53.804 C 213.789 53.804,213.558 54.088,213.348 54.435 C 213.137 54.781,212.914 55.103,212.852 55.149 C 212.790 55.195,212.568 55.574,212.358 55.990 C 212.148 56.406,211.922 56.784,211.856 56.831 C 211.684 56.950,210.594 59.309,210.341 60.109 C 210.224 60.479,210.053 60.876,209.962 60.992 C 209.870 61.108,209.851 61.202,209.920 61.202 C 209.989 61.202,209.966 61.298,209.869 61.415 C 209.772 61.532,209.556 62.307,209.388 63.138 C 209.221 63.969,209.038 64.687,208.981 64.733 C 208.924 64.779,208.873 64.931,208.867 65.069 C 208.861 65.208,208.776 65.889,208.679 66.583 C 208.452 68.196,208.450 73.038,208.675 74.569 C 208.771 75.216,208.849 75.879,208.849 76.040 C 208.848 76.202,208.919 76.335,209.006 76.335 C 209.093 76.335,209.164 76.489,209.164 76.678 C 209.164 77.258,209.712 79.269,209.906 79.401 C 210.006 79.468,210.022 79.525,209.942 79.527 C 209.861 79.528,209.870 79.624,209.961 79.739 C 210.053 79.855,210.261 80.366,210.424 80.874 C 210.587 81.383,210.810 81.913,210.919 82.051 C 211.028 82.190,211.257 82.625,211.427 83.018 C 211.597 83.411,211.792 83.733,211.859 83.733 C 211.926 83.733,212.140 84.104,212.336 84.559 C 212.531 85.013,212.751 85.410,212.825 85.442 C 212.899 85.473,213.137 85.752,213.355 86.063 C 214.443 87.611,217.509 90.550,219.473 91.926 C 219.768 92.133,220.160 92.419,220.345 92.562 C 221.027 93.092,222.704 94.156,222.856 94.157 C 222.942 94.157,223.169 94.298,223.360 94.471 C 223.551 94.644,224.067 94.919,224.506 95.082 C 224.945 95.246,225.305 95.440,225.305 95.514 C 225.305 95.588,225.475 95.700,225.683 95.763 C 225.891 95.827,226.448 96.059,226.920 96.280 C 228.010 96.789,229.640 97.352,230.025 97.352 C 230.188 97.352,230.346 97.425,230.377 97.514 C 230.477 97.805,232.367 97.942,232.367 97.659 C 232.367 97.525,232.499 97.265,232.661 97.081 C 232.823 96.897,233.050 96.580,233.165 96.376 C 233.691 95.451,233.810 95.262,234.020 95.012 C 234.352 94.618,235.561 92.678,235.561 92.539 C 235.561 92.474,235.678 92.300,235.822 92.154 C 235.965 92.007,236.418 91.358,236.828 90.710 C 237.237 90.063,237.649 89.443,237.741 89.333 C 237.834 89.223,238.070 88.845,238.266 88.493 C 238.463 88.140,238.699 87.759,238.791 87.646 C 238.979 87.415,238.687 87.262,237.369 86.903 C 236.929 86.784,236.570 86.627,236.570 86.554 C 236.570 86.482,236.513 86.437,236.444 86.454 C 236.375 86.471,236.025 86.358,235.667 86.202 C 235.309 86.046,234.955 85.918,234.880 85.918 C 234.806 85.918,234.640 85.814,234.512 85.686 C 234.384 85.558,233.952 85.286,233.551 85.082 C 233.151 84.878,232.669 84.566,232.479 84.390 C 232.290 84.213,232.055 84.069,231.957 84.069 C 231.858 84.069,231.568 83.898,231.310 83.690 C 231.053 83.482,230.386 82.972,229.829 82.556 C 228.240 81.369,225.768 78.825,225.316 77.909 C 225.093 77.459,224.861 77.053,224.800 77.007 C 224.739 76.961,224.544 76.507,224.368 75.998 C 224.191 75.490,224.000 75.036,223.944 74.989 C 223.215 74.394,223.235 65.069,223.965 65.069 C 224.034 65.069,224.138 64.814,224.197 64.502 C 224.325 63.819,225.598 61.341,225.918 61.152 C 226.043 61.078,226.145 60.921,226.145 60.803 C 226.145 60.284,229.290 57.607,230.517 57.081 C 230.933 56.902,231.311 56.706,231.358 56.646 C 231.492 56.471,234.225 55.822,234.827 55.822 C 235.127 55.822,235.420 55.746,235.477 55.654 C 235.608 55.441,237.804 55.433,238.492 55.643 C 238.776 55.730,239.626 55.921,240.381 56.069 C 241.690 56.324,243.735 57.200,244.318 57.754 C 244.465 57.894,244.670 58.008,244.774 58.008 C 245.072 58.008,247.939 60.925,248.263 61.558 C 248.424 61.871,248.610 62.165,248.678 62.211 C 248.746 62.257,248.978 62.711,249.192 63.220 C 249.407 63.728,249.630 64.182,249.688 64.229 C 249.876 64.379,250.352 66.318,250.464 67.389 C 250.524 67.962,250.638 68.432,250.718 68.432 C 250.905 68.432,250.906 71.579,250.718 71.695 C 250.640 71.744,250.531 72.312,250.477 72.956 C 250.347 74.510,249.844 77.007,249.662 77.007 C 249.582 77.007,249.517 77.137,249.517 77.297 C 249.517 77.668,248.817 79.923,248.667 80.034 C 248.604 80.080,248.495 80.307,248.425 80.538 C 248.354 80.769,248.042 81.488,247.730 82.135 C 247.418 82.782,247.163 83.397,247.163 83.501 C 247.163 83.606,247.050 83.785,246.912 83.899 C 246.775 84.014,246.703 84.174,246.754 84.256 C 246.805 84.338,246.778 84.405,246.694 84.405 C 246.610 84.405,246.399 84.727,246.226 85.120 C 246.053 85.513,245.833 85.890,245.738 85.958 C 245.627 86.037,245.625 86.083,245.734 86.087 C 245.829 86.090,245.821 86.145,245.714 86.215 C 245.611 86.283,245.358 86.671,245.152 87.077 C 244.946 87.483,244.706 87.899,244.619 88.002 C 244.531 88.104,244.123 88.718,243.711 89.365 C 243.299 90.013,242.811 90.731,242.627 90.963 C 242.442 91.194,242.290 91.438,242.289 91.506 C 242.288 91.573,241.984 92.027,241.615 92.514 C 241.245 93.002,240.943 93.495,240.942 93.611 C 240.942 93.726,240.867 93.821,240.777 93.821 C 240.686 93.821,240.458 94.124,240.269 94.493 C 240.080 94.863,239.869 95.166,239.799 95.166 C 239.730 95.166,239.527 95.436,239.349 95.767 C 239.171 96.098,238.852 96.570,238.639 96.818 C 238.426 97.065,238.252 97.345,238.252 97.440 C 238.251 97.535,238.033 97.853,237.765 98.145 C 237.498 98.438,237.177 98.909,237.052 99.192 C 236.927 99.474,236.769 99.706,236.700 99.706 C 236.632 99.706,236.422 100.008,236.234 100.378 C 236.045 100.748,235.816 101.051,235.726 101.051 C 235.635 101.051,235.561 101.130,235.561 101.226 C 235.561 101.323,235.259 101.802,234.889 102.292 C 234.519 102.782,234.216 103.258,234.216 103.349 C 234.216 103.440,234.027 103.692,233.796 103.909 C 233.565 104.126,233.375 104.365,233.375 104.440 C 233.375 104.514,233.073 104.974,232.704 105.461 C 232.334 105.948,232.031 106.442,232.031 106.557 C 232.031 106.673,231.956 106.768,231.866 106.768 C 231.775 106.768,231.546 107.070,231.358 107.440 C 231.169 107.810,230.958 108.113,230.888 108.113 C 230.819 108.113,230.616 108.383,230.438 108.714 C 230.260 109.044,229.940 109.517,229.727 109.764 C 229.515 110.012,229.340 110.290,229.340 110.383 C 229.340 110.475,229.111 110.815,228.833 111.139 C 228.555 111.463,228.234 111.936,228.120 112.190 C 228.006 112.444,227.857 112.652,227.789 112.652 C 227.721 112.652,227.511 112.955,227.322 113.325 C 227.134 113.695,226.905 113.997,226.815 113.997 C 226.724 113.997,226.650 114.076,226.650 114.172 C 226.650 114.347,226.079 115.217,225.687 115.640 C 225.574 115.763,225.357 116.124,225.206 116.443 C 225.054 116.763,224.861 117.024,224.777 117.024 C 224.693 117.024,224.550 117.194,224.460 117.402 C 224.247 117.895,223.964 118.317,223.497 118.837 C 223.289 119.069,223.119 119.361,223.119 119.487 C 223.119 119.612,223.045 119.714,222.954 119.714 C 222.864 119.714,222.632 119.998,222.440 120.345 C 222.248 120.691,221.794 121.391,221.433 121.900 C 221.071 122.409,220.773 122.881,220.770 122.951 C 220.767 123.020,224.731 123.077,229.579 123.077 L 238.394 123.077 238.986 122.110 C 239.311 121.578,239.696 121.023,239.839 120.877 C 239.983 120.731,240.101 120.551,240.101 120.477 C 240.101 120.404,240.404 119.900,240.773 119.358 C 241.143 118.816,241.446 118.306,241.446 118.223 C 241.446 118.141,241.565 117.975,241.710 117.854 C 241.856 117.734,242.128 117.336,242.314 116.970 C 242.501 116.604,242.798 116.149,242.975 115.960 C 243.151 115.770,243.296 115.530,243.296 115.427 C 243.296 115.323,243.440 115.083,243.616 114.894 C 243.793 114.704,244.105 114.217,244.311 113.811 C 244.516 113.405,244.788 113.012,244.915 112.938 C 245.041 112.864,245.145 112.731,245.145 112.642 C 245.145 112.553,245.448 112.037,245.818 111.495 C 246.187 110.953,246.490 110.428,246.490 110.328 C 246.490 110.229,246.591 110.087,246.713 110.013 C 246.836 109.939,247.120 109.538,247.344 109.121 C 247.568 108.705,247.799 108.327,247.858 108.281 C 247.917 108.235,248.106 107.961,248.279 107.672 C 248.451 107.383,248.960 106.592,249.411 105.912 C 249.861 105.233,250.308 104.504,250.405 104.293 C 250.501 104.082,250.626 103.909,250.682 103.909 C 250.738 103.909,250.972 103.555,251.201 103.122 C 251.431 102.689,251.717 102.216,251.839 102.071 C 252.304 101.514,253.383 99.780,253.383 99.588 C 253.384 99.477,253.489 99.326,253.617 99.252 C 253.746 99.178,254.000 98.852,254.183 98.529 C 254.918 97.225,255.664 96.083,255.863 95.956 C 255.979 95.882,256.074 95.744,256.074 95.649 C 256.074 95.553,256.339 95.065,256.662 94.564 C 256.986 94.063,257.524 93.218,257.858 92.686 C 258.192 92.154,258.596 91.530,258.756 91.299 C 258.916 91.068,259.187 90.576,259.359 90.206 C 259.531 89.836,259.723 89.496,259.785 89.449 C 259.847 89.403,260.250 88.684,260.679 87.852 C 261.108 87.020,261.533 86.248,261.624 86.136 C 261.715 86.025,261.942 85.533,262.128 85.043 C 262.314 84.554,262.543 84.019,262.636 83.855 C 262.730 83.691,262.961 83.124,263.149 82.594 C 263.338 82.064,263.591 81.442,263.713 81.211 C 263.834 80.979,264.065 80.185,264.226 79.445 C 264.386 78.705,264.582 78.020,264.661 77.923 C 265.521 76.856,265.528 64.491,264.668 63.306 C 264.600 63.212,264.366 62.493,264.147 61.707 C 263.929 60.921,263.701 60.240,263.642 60.193 C 263.583 60.147,263.360 59.636,263.147 59.058 C 262.933 58.480,262.700 58.008,262.629 58.008 C 262.558 58.008,262.456 57.837,262.403 57.629 C 262.250 57.031,260.518 54.401,259.476 53.184 C 257.720 51.136,254.289 48.087,253.740 48.087 C 253.659 48.087,253.500 47.975,253.386 47.838 C 253.272 47.701,252.828 47.417,252.399 47.207 C 251.969 46.998,251.532 46.745,251.426 46.646 C 251.320 46.546,250.866 46.326,250.417 46.157 C 249.968 45.987,249.563 45.795,249.517 45.729 C 249.470 45.664,248.903 45.434,248.256 45.220 C 247.608 45.005,247.041 44.776,246.995 44.712 C 246.948 44.648,246.116 44.428,245.145 44.222 C 244.174 44.017,243.228 43.783,243.043 43.703 C 242.010 43.257,235.469 43.072,232.451 43.403 M300.210 63.992 C 297.300 64.287,296.149 64.447,295.991 64.578 C 295.890 64.662,295.758 64.680,295.697 64.619 C 295.636 64.558,295.416 64.591,295.208 64.692 C 295.000 64.793,294.262 65.005,293.569 65.163 C 292.875 65.322,292.225 65.516,292.124 65.595 C 292.023 65.674,291.459 65.893,290.871 66.081 C 290.282 66.269,289.759 66.481,289.709 66.553 C 289.659 66.625,289.257 66.819,288.816 66.985 C 288.375 67.150,287.918 67.381,287.801 67.499 C 287.683 67.616,287.303 67.815,286.956 67.940 C 286.608 68.066,286.188 68.296,286.021 68.451 C 285.855 68.606,285.487 68.852,285.204 68.999 C 284.921 69.145,284.580 69.375,284.445 69.509 C 284.311 69.643,283.983 69.891,283.715 70.061 C 281.915 71.200,278.353 75.065,277.062 77.278 C 276.853 77.638,276.593 78.023,276.486 78.134 C 276.378 78.245,276.149 78.680,275.976 79.100 C 275.803 79.520,275.615 79.865,275.556 79.865 C 275.498 79.865,275.276 80.338,275.063 80.916 C 274.849 81.494,274.621 82.005,274.557 82.051 C 274.492 82.098,274.275 82.703,274.076 83.396 C 273.876 84.090,273.641 84.809,273.553 84.994 C 273.327 85.472,272.922 87.522,272.786 88.881 C 272.722 89.517,272.595 90.087,272.503 90.146 C 272.278 90.293,272.278 98.189,272.502 98.336 C 272.594 98.396,272.716 98.965,272.774 99.601 C 272.897 100.950,273.400 103.619,273.554 103.741 C 273.613 103.787,273.793 104.311,273.955 104.905 C 274.536 107.030,275.863 109.661,277.796 112.516 C 279.171 114.547,282.865 118.231,284.244 118.947 C 284.499 119.079,284.753 119.259,284.809 119.347 C 284.931 119.541,286.096 120.232,287.348 120.853 C 287.856 121.105,288.310 121.358,288.356 121.415 C 288.403 121.472,288.932 121.695,289.533 121.910 C 290.135 122.125,290.665 122.357,290.713 122.425 C 290.760 122.492,291.479 122.724,292.310 122.938 C 293.141 123.153,293.859 123.378,293.905 123.438 C 294.021 123.589,298.004 124.254,298.792 124.254 C 299.145 124.254,299.480 124.330,299.538 124.422 C 299.666 124.630,306.852 124.654,306.852 124.446 C 306.852 124.367,307.459 124.252,308.201 124.190 C 309.977 124.042,312.093 123.634,312.684 123.326 C 312.944 123.190,313.270 123.077,313.409 123.076 C 313.706 123.071,314.961 122.659,315.679 122.330 C 315.956 122.203,316.524 121.962,316.940 121.794 C 317.356 121.626,317.734 121.441,317.781 121.382 C 317.827 121.323,318.221 121.119,318.657 120.927 C 319.093 120.736,319.618 120.422,319.824 120.231 C 320.030 120.039,320.283 119.882,320.387 119.882 C 320.491 119.882,320.722 119.750,320.902 119.588 C 321.081 119.426,321.492 119.095,321.816 118.852 C 322.972 117.983,324.674 116.317,324.674 116.055 C 324.674 115.908,323.513 114.609,322.094 113.169 C 320.676 111.729,318.543 109.548,317.354 108.323 C 314.949 105.842,314.908 105.824,314.082 106.835 C 313.505 107.540,311.586 109.121,311.307 109.121 C 311.229 109.121,311.038 109.237,310.882 109.378 C 310.726 109.519,310.153 109.791,309.608 109.982 C 309.063 110.173,308.541 110.390,308.449 110.464 C 308.216 110.649,305.765 111.139,305.068 111.139 C 304.754 111.139,304.498 111.198,304.498 111.270 C 304.498 111.730,298.932 110.866,297.605 110.199 C 297.162 109.976,296.727 109.794,296.639 109.794 C 296.551 109.794,296.342 109.643,296.175 109.458 C 296.007 109.273,295.788 109.120,295.686 109.118 C 295.455 109.113,294.051 107.931,293.095 106.936 C 291.802 105.590,290.305 103.176,289.862 101.723 C 289.735 101.307,289.587 100.929,289.532 100.883 C 289.361 100.738,289.061 99.509,288.855 98.108 C 288.746 97.369,288.589 96.590,288.507 96.377 C 288.315 95.884,288.309 92.189,288.500 92.071 C 288.579 92.022,288.692 91.507,288.751 90.926 C 288.869 89.770,289.376 87.397,289.535 87.264 C 289.590 87.217,289.776 86.801,289.949 86.339 C 290.255 85.518,291.348 83.396,291.550 83.228 C 291.606 83.182,291.835 82.879,292.058 82.556 C 292.653 81.696,295.326 79.193,295.649 79.193 C 295.704 79.193,296.110 78.973,296.551 78.704 C 296.991 78.436,297.692 78.118,298.108 77.998 C 298.525 77.878,298.903 77.728,298.949 77.665 C 299.377 77.076,306.057 77.076,306.515 77.665 C 306.562 77.724,307.053 77.912,307.608 78.083 C 308.163 78.254,308.655 78.449,308.701 78.517 C 308.747 78.585,309.148 78.800,309.592 78.995 C 310.782 79.518,313.251 81.633,313.742 82.550 C 313.991 83.015,314.344 82.980,314.939 82.430 C 315.804 81.630,316.518 80.988,317.607 80.034 C 318.187 79.525,319.050 78.753,319.524 78.318 C 319.999 77.883,321.106 76.904,321.984 76.141 C 322.863 75.379,323.687 74.651,323.815 74.524 C 323.944 74.398,324.227 74.177,324.446 74.034 C 325.131 73.584,325.062 73.445,323.195 71.543 C 322.832 71.173,322.241 70.620,321.881 70.314 C 321.522 70.008,321.114 69.660,320.975 69.542 C 320.836 69.423,320.477 69.184,320.177 69.011 C 319.876 68.838,319.630 68.649,319.630 68.593 C 319.630 68.536,319.252 68.312,318.789 68.096 C 318.327 67.879,317.949 67.644,317.949 67.574 C 317.949 67.504,317.778 67.394,317.570 67.330 C 317.362 67.266,316.642 66.958,315.969 66.646 C 315.297 66.334,314.669 66.078,314.574 66.078 C 314.479 66.078,314.108 65.936,313.749 65.763 C 313.390 65.590,312.543 65.319,311.866 65.162 C 311.189 65.004,310.479 64.801,310.289 64.709 C 310.099 64.618,309.872 64.560,309.785 64.581 C 309.697 64.601,309.512 64.572,309.374 64.515 C 308.521 64.164,302.120 63.799,300.210 63.992 M353.426 63.988 C 353.102 64.025,352.043 64.141,351.072 64.245 C 350.101 64.350,349.235 64.478,349.147 64.531 C 349.059 64.583,348.832 64.644,348.642 64.666 C 348.019 64.737,345.464 65.414,345.281 65.556 C 345.183 65.633,344.554 65.859,343.884 66.060 C 343.214 66.260,342.665 66.498,342.665 66.587 C 342.665 66.677,342.558 66.751,342.427 66.751 C 342.148 66.751,340.611 67.391,340.483 67.560 C 340.434 67.624,340.037 67.850,339.600 68.064 C 339.163 68.277,338.766 68.515,338.718 68.593 C 338.671 68.670,338.309 68.901,337.916 69.106 C 337.522 69.310,337.163 69.529,337.116 69.591 C 337.070 69.654,336.805 69.875,336.528 70.083 C 336.251 70.292,335.767 70.667,335.453 70.918 C 334.684 71.533,331.736 74.507,331.736 74.669 C 331.736 74.739,331.612 74.922,331.460 75.074 C 331.074 75.459,330.391 76.485,330.391 76.678 C 330.391 76.767,330.314 76.839,330.220 76.839 C 330.126 76.839,329.923 77.104,329.769 77.427 C 329.614 77.751,329.422 78.016,329.341 78.016 C 329.260 78.016,329.241 78.092,329.298 78.184 C 329.355 78.277,329.341 78.353,329.266 78.354 C 329.191 78.355,328.980 78.677,328.796 79.069 C 328.613 79.461,328.404 79.824,328.332 79.877 C 328.260 79.929,328.044 80.421,327.851 80.969 C 327.658 81.518,327.446 82.005,327.380 82.051 C 327.314 82.098,327.091 82.703,326.884 83.396 C 326.677 84.090,326.435 84.791,326.345 84.955 C 326.157 85.296,325.515 88.908,325.515 89.624 C 325.515 89.887,325.439 90.149,325.347 90.206 C 325.139 90.334,325.115 97.629,325.322 97.757 C 325.401 97.806,325.512 98.349,325.570 98.965 C 325.694 100.294,326.198 102.949,326.350 103.069 C 326.408 103.115,326.588 103.638,326.750 104.231 C 326.912 104.824,327.199 105.657,327.388 106.081 C 328.066 107.605,329.134 109.714,329.336 109.928 C 329.449 110.048,329.666 110.407,329.817 110.727 C 329.969 111.046,330.164 111.307,330.252 111.307 C 330.339 111.307,330.370 111.373,330.321 111.453 C 330.271 111.533,330.380 111.734,330.563 111.899 C 330.746 112.065,330.895 112.298,330.895 112.417 C 330.895 112.536,331.029 112.732,331.192 112.853 C 331.356 112.974,331.624 113.284,331.789 113.542 C 332.133 114.080,334.932 116.901,335.744 117.528 C 336.043 117.760,336.464 118.119,336.680 118.327 C 336.895 118.535,337.118 118.705,337.176 118.705 C 337.280 118.705,339.355 120.060,339.763 120.394 C 339.878 120.488,340.388 120.725,340.898 120.920 C 341.407 121.115,341.824 121.329,341.824 121.396 C 341.824 121.463,342.184 121.647,342.623 121.804 C 343.062 121.962,343.728 122.235,344.102 122.411 C 344.476 122.586,345.271 122.854,345.867 123.006 C 346.464 123.157,347.035 123.348,347.136 123.430 C 347.370 123.619,351.063 124.254,351.929 124.254 C 352.290 124.254,352.585 124.330,352.585 124.422 C 352.585 124.632,359.587 124.655,359.716 124.446 C 359.766 124.366,360.388 124.248,361.100 124.184 C 362.542 124.053,364.898 123.602,365.027 123.431 C 365.074 123.370,365.707 123.175,366.436 122.997 C 367.164 122.819,367.845 122.594,367.949 122.497 C 368.053 122.400,368.441 122.219,368.810 122.095 C 369.584 121.836,372.300 120.545,372.425 120.377 C 372.472 120.314,372.831 120.101,373.224 119.901 C 373.617 119.702,373.939 119.484,373.939 119.416 C 373.939 119.347,374.177 119.186,374.468 119.057 C 374.760 118.928,375.122 118.702,375.273 118.554 C 375.424 118.406,375.839 118.065,376.195 117.796 C 377.092 117.120,379.625 114.593,380.424 113.577 C 380.787 113.115,381.128 112.699,381.181 112.652 C 381.263 112.581,381.828 111.736,382.812 110.210 C 382.930 110.028,383.226 109.462,383.470 108.953 C 383.714 108.445,383.971 107.990,384.041 107.943 C 384.111 107.896,384.329 107.442,384.526 106.934 C 384.722 106.426,385.021 105.708,385.189 105.338 C 385.356 104.968,385.590 104.250,385.707 103.741 C 385.824 103.232,385.984 102.736,386.061 102.637 C 386.790 101.711,387.302 94.253,386.903 90.374 C 386.618 87.598,385.530 82.901,385.035 82.303 C 384.958 82.210,384.745 81.756,384.560 81.294 C 383.863 79.547,381.340 75.378,381.116 75.602 C 381.052 75.666,381.000 75.619,381.000 75.497 C 381.000 74.863,377.529 71.365,375.226 69.679 C 374.779 69.352,374.230 69.000,374.007 68.899 C 373.785 68.797,373.602 68.664,373.602 68.602 C 373.602 68.540,373.205 68.307,372.720 68.084 C 372.234 67.861,371.799 67.631,371.753 67.572 C 371.707 67.514,371.253 67.290,370.744 67.075 C 370.235 66.860,369.781 66.641,369.735 66.589 C 369.585 66.418,366.998 65.550,365.616 65.206 C 364.876 65.023,364.134 64.799,363.966 64.710 C 363.798 64.622,363.515 64.595,363.335 64.652 C 363.156 64.709,363.010 64.685,363.010 64.598 C 363.010 64.236,355.468 63.756,353.426 63.988 M105.784 74.249 C 105.668 75.414,105.505 76.492,105.422 76.645 C 105.339 76.798,105.108 77.718,104.910 78.689 C 104.712 79.660,104.489 80.530,104.415 80.622 C 104.341 80.715,104.120 81.314,103.923 81.954 C 103.727 82.594,103.505 83.200,103.429 83.299 C 103.354 83.399,103.193 83.745,103.071 84.069 C 102.866 84.612,101.979 86.444,101.037 88.272 C 100.822 88.689,100.586 89.054,100.511 89.085 C 100.437 89.116,100.419 89.211,100.471 89.296 C 100.524 89.380,100.503 89.449,100.426 89.449 C 100.350 89.449,100.137 89.733,99.954 90.080 C 99.771 90.427,99.489 90.857,99.327 91.036 C 99.166 91.216,99.033 91.447,99.033 91.551 C 99.033 91.655,98.883 91.901,98.699 92.098 C 98.515 92.296,98.205 92.764,98.010 93.139 C 97.814 93.514,97.600 93.821,97.534 93.821 C 97.468 93.821,97.244 94.124,97.036 94.493 C 96.828 94.863,96.587 95.166,96.500 95.166 C 96.414 95.166,96.343 95.245,96.343 95.341 C 96.343 95.537,95.782 96.349,95.208 96.983 C 95.000 97.213,94.830 97.454,94.830 97.520 C 94.830 97.585,94.622 97.871,94.367 98.156 C 94.113 98.441,93.777 98.849,93.620 99.064 C 93.464 99.278,92.991 99.888,92.570 100.418 C 92.148 100.948,91.803 101.432,91.803 101.493 C 91.803 101.554,91.653 101.763,91.469 101.958 C 90.730 102.739,90.290 103.257,90.290 103.344 C 90.290 103.394,89.950 103.834,89.533 104.321 C 89.117 104.808,88.777 105.252,88.777 105.307 C 88.777 105.362,88.607 105.596,88.398 105.826 C 87.943 106.331,87.509 106.861,86.459 108.195 C 86.023 108.749,85.496 109.391,85.288 109.622 C 85.080 109.854,84.910 110.108,84.910 110.187 C 84.910 110.267,84.702 110.545,84.447 110.806 C 84.193 111.067,83.813 111.495,83.602 111.756 C 82.367 113.293,81.715 114.157,81.715 114.256 C 81.715 114.318,81.526 114.518,81.295 114.700 C 81.063 114.882,80.874 115.111,80.874 115.209 C 80.874 115.308,80.704 115.564,80.496 115.779 C 80.082 116.207,79.960 116.357,78.100 118.705 C 77.405 119.584,76.646 120.530,76.415 120.807 C 75.665 121.707,75.330 122.127,74.061 123.749 C 73.374 124.628,72.659 125.501,72.472 125.689 C 72.284 125.877,72.131 126.121,72.131 126.232 C 72.131 126.342,71.942 126.556,71.711 126.707 C 71.480 126.859,71.290 127.057,71.290 127.147 C 71.290 127.237,70.950 127.709,70.534 128.196 C 70.118 128.684,69.777 129.139,69.777 129.208 C 69.777 129.277,69.588 129.482,69.357 129.664 C 69.126 129.846,68.937 130.094,68.937 130.216 C 68.937 130.337,68.747 130.560,68.516 130.712 C 68.285 130.863,68.096 131.077,68.096 131.188 C 68.096 131.298,67.942 131.542,67.755 131.730 C 67.567 131.918,66.846 132.791,66.151 133.670 C 65.457 134.548,64.702 135.494,64.473 135.771 C 63.224 137.286,62.511 138.209,62.590 138.209 C 62.630 138.209,62.297 138.607,61.850 139.092 C 61.402 139.578,61.036 140.061,61.035 140.166 C 61.035 140.271,60.845 140.480,60.614 140.632 C 60.383 140.783,60.193 141.015,60.193 141.146 C 60.193 141.277,60.033 141.497,59.836 141.635 C 59.640 141.772,59.394 142.034,59.290 142.216 C 59.186 142.398,58.886 142.815,58.624 143.144 C 57.988 143.943,58.089 144.202,59.687 145.877 C 59.873 146.072,60.025 146.312,60.025 146.412 C 60.025 146.511,60.214 146.741,60.446 146.922 C 60.677 147.104,60.866 147.307,60.866 147.372 C 60.866 147.438,61.225 147.929,61.665 148.464 C 62.104 148.999,62.652 149.680,62.884 149.978 C 64.621 152.217,65.610 153.339,65.764 153.244 C 65.852 153.190,66.491 152.452,67.184 151.604 C 67.876 150.756,68.630 149.836,68.860 149.559 C 69.548 148.725,69.903 148.283,71.157 146.700 C 71.816 145.868,72.551 144.954,72.790 144.670 C 73.029 144.385,73.451 143.866,73.728 143.517 C 74.006 143.168,74.460 142.598,74.737 142.252 C 75.015 141.905,75.469 141.335,75.746 140.985 C 76.024 140.635,76.365 140.225,76.505 140.075 C 76.645 139.925,76.937 139.553,77.154 139.248 C 77.371 138.943,77.767 138.455,78.034 138.162 C 78.302 137.869,78.520 137.563,78.520 137.481 C 78.520 137.400,78.710 137.184,78.941 137.002 C 79.172 136.820,79.361 136.593,79.361 136.498 C 79.361 136.402,79.550 136.175,79.781 135.993 C 80.013 135.812,80.202 135.564,80.202 135.442 C 80.202 135.321,80.391 135.098,80.622 134.946 C 80.853 134.795,81.042 134.592,81.042 134.496 C 81.042 134.401,81.572 133.693,82.219 132.924 C 82.867 132.156,83.396 131.485,83.396 131.434 C 83.396 131.383,83.604 131.120,83.859 130.848 C 84.113 130.577,84.510 130.114,84.741 129.820 C 84.973 129.526,85.332 129.109,85.540 128.894 C 85.748 128.679,85.918 128.452,85.918 128.390 C 85.918 128.267,88.235 125.387,88.776 124.836 C 88.962 124.648,89.113 124.424,89.113 124.338 C 89.113 124.252,89.267 124.028,89.454 123.839 C 89.642 123.651,90.363 122.778,91.058 121.900 C 91.752 121.021,92.488 120.092,92.692 119.834 C 92.897 119.576,93.235 119.189,93.443 118.974 C 93.651 118.759,93.821 118.528,93.821 118.461 C 93.821 118.394,94.161 117.940,94.578 117.453 C 94.994 116.966,95.334 116.522,95.334 116.467 C 95.334 116.412,95.504 116.178,95.712 115.947 C 96.479 115.098,98.361 112.710,98.361 112.587 C 98.361 112.539,98.541 112.298,98.762 112.052 C 99.683 111.026,99.804 110.876,100.105 110.389 C 100.279 110.108,100.477 109.840,100.546 109.794 C 100.712 109.682,102.396 107.476,102.396 107.370 C 102.396 107.324,102.566 107.105,102.774 106.883 C 102.982 106.661,103.288 106.298,103.453 106.077 C 103.618 105.856,103.958 105.399,104.209 105.063 C 104.460 104.727,104.968 104.019,105.338 103.489 C 105.708 102.960,106.169 102.327,106.362 102.083 C 106.554 101.839,107.065 101.110,107.496 100.462 C 107.927 99.815,108.340 99.210,108.414 99.117 C 108.489 99.025,108.735 98.612,108.962 98.200 C 109.188 97.788,109.506 97.315,109.668 97.149 C 109.830 96.983,109.962 96.748,109.962 96.627 C 109.962 96.506,110.098 96.260,110.264 96.080 C 110.430 95.901,110.748 95.376,110.970 94.914 C 111.192 94.451,111.456 93.990,111.556 93.888 C 111.656 93.786,111.886 93.369,112.066 92.963 C 112.247 92.556,112.490 92.124,112.607 92.001 C 112.725 91.879,112.821 91.704,112.821 91.613 C 112.821 91.521,113.123 90.803,113.493 90.018 C 113.863 89.232,114.166 88.524,114.166 88.444 C 114.166 88.365,114.348 87.934,114.572 87.488 C 114.795 87.041,115.031 86.391,115.095 86.045 C 115.159 85.698,115.268 85.414,115.337 85.414 C 115.406 85.414,115.631 84.752,115.837 83.943 C 116.042 83.134,116.280 82.341,116.364 82.182 C 116.448 82.023,116.678 80.963,116.875 79.828 C 117.073 78.693,117.297 77.612,117.374 77.427 C 117.525 77.068,117.865 73.841,117.865 72.774 L 117.865 72.131 111.929 72.131 L 105.994 72.131 105.784 74.249 M359.555 77.257 C 360.290 77.388,361.123 77.604,361.404 77.737 C 361.686 77.870,362.182 78.103,362.505 78.255 C 364.420 79.156,367.145 81.455,367.801 82.722 C 367.945 83.000,368.119 83.228,368.189 83.228 C 368.318 83.228,369.459 85.403,370.043 86.759 C 370.222 87.175,370.499 88.121,370.660 88.861 C 370.820 89.601,371.037 90.388,371.142 90.610 C 371.398 91.153,371.400 96.820,371.144 97.368 C 371.040 97.590,370.794 98.529,370.596 99.454 C 370.399 100.378,370.162 101.160,370.070 101.191 C 369.978 101.222,369.903 101.377,369.903 101.535 C 369.903 101.930,368.413 104.802,368.121 104.968 C 367.992 105.042,367.886 105.194,367.886 105.306 C 367.886 105.418,367.693 105.717,367.459 105.971 C 367.224 106.224,367.067 106.431,367.111 106.431 C 367.155 106.431,366.801 106.810,366.324 107.272 C 365.846 107.734,365.403 108.113,365.338 108.113 C 365.273 108.113,365.088 108.245,364.928 108.407 C 363.667 109.680,359.997 111.139,358.057 111.139 C 357.729 111.139,357.461 111.198,357.461 111.270 C 357.461 111.459,354.095 111.195,352.375 110.871 C 351.566 110.718,350.904 110.527,350.904 110.446 C 350.904 110.365,350.847 110.314,350.778 110.333 C 350.617 110.377,349.012 109.655,348.892 109.485 C 348.842 109.415,348.462 109.159,348.045 108.915 C 346.650 108.100,343.901 105.136,343.596 104.119 C 343.534 103.911,343.422 103.741,343.347 103.741 C 343.272 103.741,343.041 103.287,342.833 102.732 C 342.626 102.177,342.400 101.723,342.332 101.723 C 342.265 101.723,342.041 100.986,341.835 100.084 C 341.630 99.182,341.393 98.316,341.310 98.158 C 340.790 97.174,340.811 90.172,341.334 89.982 C 341.419 89.951,341.488 89.803,341.488 89.654 C 341.488 89.144,342.213 86.423,342.349 86.423 C 342.423 86.423,342.561 86.139,342.654 85.792 C 342.823 85.168,343.732 83.585,344.247 83.018 C 344.394 82.856,344.515 82.680,344.515 82.626 C 344.515 81.753,349.662 77.848,350.814 77.848 C 350.940 77.848,351.069 77.774,351.100 77.685 C 351.296 77.115,357.107 76.821,359.555 77.257 M259.462 107.786 C 257.326 108.167,254.838 110.190,254.107 112.142 C 253.950 112.562,253.742 112.959,253.645 113.024 C 253.219 113.313,253.432 117.202,253.930 118.233 C 254.185 118.759,254.393 119.256,254.393 119.338 C 254.393 119.674,256.555 121.671,257.255 121.981 C 257.669 122.164,258.099 122.402,258.211 122.509 C 259.109 123.367,263.254 123.191,265.107 122.217 C 266.100 121.694,266.250 121.584,267.057 120.777 C 267.925 119.909,268.142 119.633,268.257 119.253 C 268.319 119.045,268.482 118.763,268.619 118.626 C 269.512 117.734,269.503 112.775,268.608 111.880 C 268.465 111.737,268.348 111.509,268.348 111.374 C 268.348 111.061,266.084 108.785,265.773 108.785 C 265.646 108.785,265.372 108.639,265.166 108.460 C 264.441 107.831,261.298 107.460,259.462 107.786 " stroke="none" fill="#2c54a4" fill-rule="evenodd"></path><path id="path1" d="" stroke="none" fill="#3054a4" fill-rule="evenodd"></path><path id="path2" d="" stroke="none" fill="#3054a4" fill-rule="evenodd"></path><path id="path3" d="" stroke="none" fill="#3054a4" fill-rule="evenodd"></path><path id="path4" d="" stroke="none" fill="#3054a4" fill-rule="evenodd"></path></g></svg>