<svg width="17" height="32" viewBox="0 0 17 32" fill="none" xmlns="http://www.w3.org/2000/svg">
<path d="M13.3169 29.3271C13.6762 29.6709 14.1137 29.8584 14.6137 29.8584C15.6606 29.8584 16.4731 29.0459 16.4731 28.0146C16.4731 27.499 16.27 27.0303 15.9106 26.6709L4.97311 15.9834L15.9106 5.32715C16.27 4.96777 16.4731 4.4834 16.4731 3.9834C16.4731 2.95215 15.6606 2.13965 14.6137 2.13965C14.1137 2.13965 13.6762 2.32715 13.3325 2.6709L1.17624 14.5459C0.738739 14.9521 0.519989 15.4521 0.519989 15.999C0.519989 16.5459 0.738739 17.0146 1.16061 17.4365L13.3169 29.3271Z" fill="white"/>
</svg>
