<svg width="17" height="32" viewBox="0 0 17 32" fill="none" xmlns="http://www.w3.org/2000/svg">
<path d="M2.35938 29.8587C2.875 29.8587 3.29688 29.6712 3.65625 29.3275L15.8125 17.4525C16.2344 17.015 16.4531 16.5619 16.4531 15.9994C16.4531 15.4525 16.25 14.9681 15.8125 14.5619L3.65625 2.67125C3.29688 2.3275 2.875 2.14 2.35938 2.14C1.3125 2.14 0.5 2.9525 0.5 3.98375C0.5 4.48375 0.71875 4.96812 1.0625 5.3275L12.0156 16.015L1.0625 26.6712C0.703125 27.0462 0.5 27.4994 0.5 28.015C0.5 29.0462 1.3125 29.8587 2.35938 29.8587Z" fill="white"/>
</svg>
